<svg width="53" height="53" viewBox="0 0 53 53" fill="none" xmlns="http://www.w3.org/2000/svg">
<g filter="url(#filter0_ii_1723_4595)">
<path fill-rule="evenodd" clip-rule="evenodd" d="M21.6133 35.8525L37.6539 29.3153L41.5305 38.8274C42.5143 41.2415 41.3549 43.9962 38.9407 44.9801L31.6426 47.9544C29.2284 48.9383 26.4737 47.7788 25.4899 45.3646L21.6133 35.8525ZM25.7151 37.579L28.404 44.177C28.732 44.9817 29.6502 45.3682 30.4549 45.0402L37.753 42.0659C38.5578 41.738 38.9443 40.8197 38.6163 40.015L35.9274 33.4171L25.7151 37.579Z" fill="#FBBA59"/>
</g>
<g filter="url(#filter1_f_1723_4595)">
<path d="M24.1406 36.3291L24.0467 36.0974L23.8141 36.1917L23.9093 36.4239L24.1406 36.3291ZM37.3379 30.9795L37.5693 30.8847L37.4748 30.6542L37.244 30.7478L37.3379 30.9795ZM31.5651 46.1106L31.4712 45.8789L31.5651 46.1106ZM27.4411 44.3841L27.6724 44.2893L27.4411 44.3841ZM40.6384 39.0345L40.4071 39.1293L40.6384 39.0345ZM38.9026 43.1363L38.9965 43.368L38.9026 43.1363ZM24.2345 36.5608L37.4319 31.2112L37.244 30.7478L24.0467 36.0974L24.2345 36.5608ZM37.1066 31.0743L40.4071 39.1293L40.8698 38.9397L37.5693 30.8847L37.1066 31.0743ZM38.8087 42.9046L31.4712 45.8789L31.659 46.3423L38.9965 43.368L38.8087 42.9046ZM27.6724 44.2893L24.372 36.2343L23.9093 36.4239L27.2098 44.4789L27.6724 44.2893ZM31.4712 45.8789C29.9798 46.4834 28.2794 45.7705 27.6724 44.2893L27.2098 44.4789C27.9218 46.2166 29.9141 47.0496 31.659 46.3423L31.4712 45.8789ZM40.4071 39.1293C41.0137 40.6098 40.2994 42.3003 38.8087 42.9046L38.9965 43.368C40.7421 42.6604 41.5821 40.6781 40.8698 38.9397L40.4071 39.1293Z" fill="url(#paint0_linear_1723_4595)"/>
<path d="M24.1406 36.3291L24.0467 36.0974L23.8141 36.1917L23.9093 36.4239L24.1406 36.3291ZM37.3379 30.9795L37.5693 30.8847L37.4748 30.6542L37.244 30.7478L37.3379 30.9795ZM31.5651 46.1106L31.4712 45.8789L31.5651 46.1106ZM27.4411 44.3841L27.6724 44.2893L27.4411 44.3841ZM40.6384 39.0345L40.4071 39.1293L40.6384 39.0345ZM38.9026 43.1363L38.9965 43.368L38.9026 43.1363ZM24.2345 36.5608L37.4319 31.2112L37.244 30.7478L24.0467 36.0974L24.2345 36.5608ZM37.1066 31.0743L40.4071 39.1293L40.8698 38.9397L37.5693 30.8847L37.1066 31.0743ZM38.8087 42.9046L31.4712 45.8789L31.659 46.3423L38.9965 43.368L38.8087 42.9046ZM27.6724 44.2893L24.372 36.2343L23.9093 36.4239L27.2098 44.4789L27.6724 44.2893ZM31.4712 45.8789C29.9798 46.4834 28.2794 45.7705 27.6724 44.2893L27.2098 44.4789C27.9218 46.2166 29.9141 47.0496 31.659 46.3423L31.4712 45.8789ZM40.4071 39.1293C41.0137 40.6098 40.2994 42.3003 38.8087 42.9046L38.9965 43.368C40.7421 42.6604 41.5821 40.6781 40.8698 38.9397L40.4071 39.1293Z" fill="url(#paint1_radial_1723_4595)"/>
</g>
<path d="M21.1168 6.19737C22.4298 3.19897 26.3519 2.46771 28.6572 4.79152L48.0162 24.3063C50.312 26.6207 49.5665 30.519 46.5786 31.8228L15.3647 45.4438L7.52344 37.2402L21.1168 6.19737Z" fill="url(#paint2_radial_1723_4595)"/>
<path d="M21.1168 6.19737C22.4298 3.19897 26.3519 2.46771 28.6572 4.79152L48.0162 24.3063C50.312 26.6207 49.5665 30.519 46.5786 31.8228L15.3647 45.4438L7.52344 37.2402L21.1168 6.19737Z" fill="url(#paint3_linear_1723_4595)"/>
<path d="M21.1168 6.19737C22.4298 3.19897 26.3519 2.46771 28.6572 4.79152L48.0162 24.3063C50.312 26.6207 49.5665 30.519 46.5786 31.8228L15.3647 45.4438L7.52344 37.2402L21.1168 6.19737Z" fill="url(#paint4_radial_1723_4595)"/>
<path d="M21.1168 6.19737C22.4298 3.19897 26.3519 2.46771 28.6572 4.79152L48.0162 24.3063C50.312 26.6207 49.5665 30.519 46.5786 31.8228L15.3647 45.4438L7.52344 37.2402L21.1168 6.19737Z" fill="url(#paint5_radial_1723_4595)"/>
<path d="M21.1168 6.19737C22.4298 3.19897 26.3519 2.46771 28.6572 4.79152L48.0162 24.3063C50.312 26.6207 49.5665 30.519 46.5786 31.8228L15.3647 45.4438L7.52344 37.2402L21.1168 6.19737Z" fill="url(#paint6_linear_1723_4595)"/>
<rect x="6.12695" y="33.9277" width="18.0979" height="5.48974" rx="1.65728" transform="rotate(45 6.12695 33.9277)" fill="#FAA72C"/>
<rect x="6.12695" y="33.9277" width="18.0979" height="5.48974" rx="1.65728" transform="rotate(45 6.12695 33.9277)" fill="url(#paint7_radial_1723_4595)"/>
<rect x="6.12695" y="33.9277" width="18.0979" height="5.48974" rx="1.65728" transform="rotate(45 6.12695 33.9277)" fill="url(#paint8_linear_1723_4595)"/>
<rect x="6.12695" y="33.9277" width="18.0979" height="5.48974" rx="1.65728" transform="rotate(45 6.12695 33.9277)" fill="url(#paint9_radial_1723_4595)"/>
<rect x="6.12695" y="33.9277" width="18.0979" height="5.48974" rx="1.65728" transform="rotate(45 6.12695 33.9277)" fill="url(#paint10_radial_1723_4595)"/>
<defs>
<filter id="filter0_ii_1723_4595" x="21.6133" y="28.8154" width="20.7676" height="19.4893" filterUnits="userSpaceOnUse" color-interpolation-filters="sRGB">
<feFlood flood-opacity="0" result="BackgroundImageFix"/>
<feBlend mode="normal" in="SourceGraphic" in2="BackgroundImageFix" result="shape"/>
<feColorMatrix in="SourceAlpha" type="matrix" values="0 0 0 0 0 0 0 0 0 0 0 0 0 0 0 0 0 0 127 0" result="hardAlpha"/>
<feOffset dx="0.5" dy="-0.5"/>
<feGaussianBlur stdDeviation="0.375"/>
<feComposite in2="hardAlpha" operator="arithmetic" k2="-1" k3="1"/>
<feColorMatrix type="matrix" values="0 0 0 0 0.972549 0 0 0 0 0.6 0 0 0 0 0.231373 0 0 0 1 0"/>
<feBlend mode="normal" in2="shape" result="effect1_innerShadow_1723_4595"/>
<feColorMatrix in="SourceAlpha" type="matrix" values="0 0 0 0 0 0 0 0 0 0 0 0 0 0 0 0 0 0 127 0" result="hardAlpha"/>
<feOffset dx="0.3"/>
<feGaussianBlur stdDeviation="0.25"/>
<feComposite in2="hardAlpha" operator="arithmetic" k2="-1" k3="1"/>
<feColorMatrix type="matrix" values="0 0 0 0 0.831373 0 0 0 0 0.54902 0 0 0 0 0.254902 0 0 0 1 0"/>
<feBlend mode="normal" in2="effect1_innerShadow_1723_4595" result="effect2_innerShadow_1723_4595"/>
</filter>
<filter id="filter1_f_1723_4595" x="23.3145" y="30.1543" width="18.3086" height="16.9395" filterUnits="userSpaceOnUse" color-interpolation-filters="sRGB">
<feFlood flood-opacity="0" result="BackgroundImageFix"/>
<feBlend mode="normal" in="SourceGraphic" in2="BackgroundImageFix" result="shape"/>
<feGaussianBlur stdDeviation="0.25" result="effect1_foregroundBlur_1723_4595"/>
</filter>
<linearGradient id="paint0_linear_1723_4595" x1="42.0275" y1="39.2358" x2="35.7671" y2="42.6217" gradientUnits="userSpaceOnUse">
<stop stop-color="#FFEA7B"/>
<stop offset="1" stop-color="#FFEA7B" stop-opacity="0"/>
</linearGradient>
<radialGradient id="paint1_radial_1723_4595" cx="0" cy="0" r="1" gradientUnits="userSpaceOnUse" gradientTransform="translate(27.9615 41.6465) rotate(153.004) scale(3.98296 4.68141)">
<stop stop-color="#FFEA7B"/>
<stop offset="1" stop-color="#FFEA7B" stop-opacity="0"/>
</radialGradient>
<radialGradient id="paint2_radial_1723_4595" cx="0" cy="0" r="1" gradientUnits="userSpaceOnUse" gradientTransform="translate(16.7622 41.8208) rotate(-32.1826) scale(28.3754 10.6742)">
<stop offset="0.0244878" stop-color="#FAB66E"/>
<stop offset="1" stop-color="#EC9547"/>
</radialGradient>
<linearGradient id="paint3_linear_1723_4595" x1="9.51611" y1="23.602" x2="22.4556" y2="30.434" gradientUnits="userSpaceOnUse">
<stop offset="0.210788" stop-color="#A47F53"/>
<stop offset="1" stop-color="#C59635" stop-opacity="0"/>
</linearGradient>
<radialGradient id="paint4_radial_1723_4595" cx="0" cy="0" r="1" gradientUnits="userSpaceOnUse" gradientTransform="translate(39.7427 18.8403) rotate(138.24) scale(3.88563 15.7681)">
<stop stop-color="#FCC071"/>
<stop offset="1" stop-color="#F9A53E" stop-opacity="0"/>
</radialGradient>
<radialGradient id="paint5_radial_1723_4595" cx="0" cy="0" r="1" gradientUnits="userSpaceOnUse" gradientTransform="translate(28.443 5.95259) rotate(138.321) scale(2.95775 13.1127)">
<stop stop-color="#EBA659"/>
<stop offset="1" stop-color="#F29E36" stop-opacity="0"/>
</radialGradient>
<linearGradient id="paint6_linear_1723_4595" x1="34.3599" y1="37.8872" x2="32.8589" y2="34.6264" gradientUnits="userSpaceOnUse">
<stop offset="0.0935317" stop-color="#EC7E85"/>
<stop offset="1" stop-color="#F8A35F" stop-opacity="0"/>
</linearGradient>
<radialGradient id="paint7_radial_1723_4595" cx="0" cy="0" r="1" gradientUnits="userSpaceOnUse" gradientTransform="translate(22.9988 39.0515) rotate(-178.141) scale(12.4134 3.4831)">
<stop stop-color="#F79F6D"/>
<stop offset="1" stop-color="#F79F6D" stop-opacity="0"/>
</radialGradient>
<linearGradient id="paint8_linear_1723_4595" x1="10.1894" y1="40.0031" x2="15.3497" y2="33.8179" gradientUnits="userSpaceOnUse">
<stop stop-color="#A77850"/>
<stop offset="1" stop-color="#DB8E2F" stop-opacity="0"/>
</linearGradient>
<radialGradient id="paint9_radial_1723_4595" cx="0" cy="0" r="1" gradientUnits="userSpaceOnUse" gradientTransform="translate(15.8621 35.3551) rotate(93.7586) scale(1.88429 6.21188)">
<stop stop-color="#FCCA73"/>
<stop offset="1" stop-color="#FBB950" stop-opacity="0"/>
</radialGradient>
<radialGradient id="paint10_radial_1723_4595" cx="0" cy="0" r="1" gradientUnits="userSpaceOnUse" gradientTransform="translate(18.4972 32.9396) rotate(75.2284) scale(7.60769 26.6687)">
<stop offset="0.514742" stop-color="#E26977" stop-opacity="0"/>
<stop offset="0.940338" stop-color="#F67698"/>
</radialGradient>
</defs>
</svg>
