<svg width="121" height="15" viewBox="0 0 121 15" fill="none" xmlns="http://www.w3.org/2000/svg">
<path d="M92.885 4.08441H94.8696V14.0978H92.885V4.08441Z" fill="#177DFF"/>
<path d="M94.8696 2.10808H92.885L94.8696 4.08441V2.10808Z" fill="#177DFF"/>
<path d="M73.0231 4.08441H71.0385V14.0978H73.0231V9.43671L78.3979 4.08441H75.5912L73.0231 6.64176V4.08441Z" fill="#177DFF"/>
<path d="M40.6503 0H38.6657V14.0978H40.6503V9.83176L40.8628 9.62019L41.2288 9.25591L44.2885 14.1H46.5746L42.6322 7.85844L46.4221 4.08441H43.6154L43.3318 4.36681L40.6503 7.03681V0Z" fill="#177DFF"/>
<path fill-rule="evenodd" clip-rule="evenodd" d="M17.0838 4.08441V12.1215L19.0684 14.0978H25.0224V6.06074L23.0377 4.08441H17.0838ZM23.0377 6.06074H19.0684V12.1215H23.0377V6.06074Z" fill="#177DFF"/>
<path fill-rule="evenodd" clip-rule="evenodd" d="M98.6481 4.08441H104.602L106.587 6.06074V9.74989H100.633V12.1215H106.587V14.0978H100.633L98.6481 12.1215V4.08441ZM100.633 7.77356H104.602V6.06074H100.633V7.77356Z" fill="#177DFF"/>
<path d="M54.4844 2.10808H52.4997L54.4844 4.08441H49.4566V6.06074H52.4997V14.0978H54.4844V6.06074H57.3952V4.08441H54.4844V2.10808Z" fill="#177DFF"/>
<path d="M35.8133 6.06074L33.8287 4.08441H27.8747V12.1215L29.8594 14.0978H35.8133V12.1215H29.8594V6.06074H35.8133Z" fill="#177DFF"/>
<path d="M108.513 4.08441H110.425L111.869 11.4963L113.799 4.08441H115.718L117.161 11.4963L119.092 4.08441H120.95L118.135 14.0978H116.187L114.654 7.65401L112.843 14.0978H110.894L108.513 4.08441Z" fill="#177DFF"/>
<path fill-rule="evenodd" clip-rule="evenodd" d="M60.2475 4.08441H66.2015L68.1861 6.06074V9.74989H62.2322V12.1215H68.1861V14.0978H62.2322L60.2475 12.1215V4.08441ZM62.2322 7.77356H66.2015V6.06074H62.2322V7.77356Z" fill="#177DFF"/>
<path d="M82.2263 4.08441H80.374L83.2848 14.0978H85.6664L89.1064 4.08441H87.3203L84.4756 12.4185L82.2263 4.08441Z" fill="#177DFF"/>
<path fill-rule="evenodd" clip-rule="evenodd" d="M0 0.131815L6.61549 7.01649L13.231 0.131815V14.0979H8.07278V9.90153L8.07089 9.36152C8.07214 9.3397 8.07278 9.31773 8.07278 9.29564C8.07278 8.73936 7.58636 8.17897 6.68352 8.17897C5.78069 8.17897 5.29427 8.73936 5.29427 9.29564C5.29427 9.3195 5.29427 9.34142 5.29427 9.36152V14.0979H0V0.131815Z" fill="#177DFF"/>
</svg>
