<svg width="21" height="23" viewBox="0 0 21 23" fill="none" xmlns="http://www.w3.org/2000/svg">
<path d="M12.6842 18.0864C17.2769 18.0864 21 14.1827 21 9.3674C21 4.55205 17.2769 0.648438 12.6842 0.648438C8.09158 0.648438 4.36849 4.55205 4.36849 9.3674C4.36849 11.2118 4.91473 12.9225 5.84684 14.3313C4.93523 14.123 3.94458 14.3904 3.23583 15.1335L0.830328 17.6556C-0.276776 18.8164 -0.276776 20.6984 0.830328 21.8592C1.93743 23.02 3.7324 23.02 4.8395 21.8592L7.24501 19.337C7.9595 18.5879 8.21288 17.5384 8.00515 16.5762C9.33815 17.5292 10.9491 18.0864 12.6842 18.0864ZM12.6842 16.5011C8.92661 16.5011 5.88045 13.3072 5.88045 9.3674C5.88045 5.42757 8.92661 2.2337 12.6842 2.2337C16.4419 2.2337 19.488 5.42757 19.488 9.3674C19.488 13.3072 16.4419 16.5011 12.6842 16.5011Z" fill="#177DFF"/>
</svg>
