<svg width="24" height="23" viewBox="0 0 24 23" fill="none" xmlns="http://www.w3.org/2000/svg">
<path d="M3.75391 9.34375H8.06641V18.6875H3.75391C3.56328 18.6875 3.38046 18.6118 3.24567 18.477C3.11088 18.3422 3.03516 18.1594 3.03516 17.9688V10.0625C3.03516 9.87188 3.11088 9.68906 3.24567 9.55427C3.38046 9.41948 3.56328 9.34375 3.75391 9.34375Z" fill="#177DFF" stroke="#177DFF" stroke-width="1.5" stroke-linecap="round" stroke-linejoin="round"/>
<path d="M8.06641 9.34375L11.6602 2.15625C12.0377 2.15625 12.4116 2.23061 12.7604 2.3751C13.1092 2.51958 13.4261 2.73135 13.6931 2.99832C13.9601 3.26529 14.1718 3.58222 14.3163 3.93104C14.4608 4.27985 14.5352 4.6537 14.5352 5.03125V7.1875H20.0943C20.2981 7.1875 20.4996 7.23085 20.6854 7.31466C20.8712 7.39848 21.037 7.52085 21.1719 7.67366C21.3068 7.82646 21.4077 8.00621 21.4678 8.20097C21.5279 8.39573 21.546 8.60105 21.5207 8.8033L20.4426 17.4283C20.3991 17.776 20.2302 18.0958 19.9675 18.3277C19.7048 18.5595 19.3665 18.6875 19.0162 18.6875H8.06641" stroke="#177DFF" stroke-width="1.5" stroke-linecap="round" stroke-linejoin="round"/>
</svg>
