<svg width="448" height="208" viewBox="0 0 448 208" fill="none" xmlns="http://www.w3.org/2000/svg">
<g filter="url(#filter0_d_1162_4766)">
<circle cx="75" cy="121" r="60" fill="white"/>
<circle cx="75" cy="121" r="59.5" stroke="#177DFF"/>
</g>
<g filter="url(#filter1_d_1162_4766)">
<circle cx="220" cy="71" r="60" fill="#C7DAF2"/>
<circle cx="220" cy="71" r="59.5" stroke="#177DFF"/>
</g>
<g filter="url(#filter2_d_1162_4766)">
<circle cx="365" cy="121" r="60" fill="#177DFF"/>
<circle cx="365" cy="121" r="59.5" stroke="#177DFF"/>
</g>
<circle cx="365" cy="121" r="67.5" stroke="#177DFF"/>
<path d="M129.5 98.5L162 85" stroke="#177DFF" stroke-dasharray="3 3"/>
<path d="M279 85L303.5 94.5" stroke="#177DFF" stroke-dasharray="3 3"/>
<circle cx="303" cy="94" r="2" fill="#177DFF"/>
<circle cx="31" cy="81" r="3.75" fill="#EDF1F7" stroke="#177DFF" stroke-width="0.5"/>
<circle cx="419.5" cy="161.5" r="4" fill="#DFE5EE" stroke="#177DFF"/>
<circle cx="31" cy="81" r="2" fill="#177DFF"/>
<circle cx="162" cy="85" r="3.75" fill="url(#paint0_linear_1162_4766)" stroke="#177DFF" stroke-width="0.5"/>
<circle cx="162" cy="85" r="2" fill="#177DFF"/>
<path d="M49.6747 148.424H52.7493V143.199H45.1125V148.424H48.1954V150.612H44.0808V151.83H53.8349V150.612H49.6747V148.424ZM51.2742 144.396V147.251H46.5877V144.396H51.2742ZM61.7729 142.407V153.106H63.2604V142.407H61.7729ZM57.7494 143.124C56.0712 143.124 54.7867 144.214 54.7908 145.743C54.7867 147.276 56.0712 148.362 57.7494 148.362C59.4483 148.362 60.7038 147.276 60.7121 145.743C60.7038 144.214 59.4483 143.124 57.7494 143.124ZM57.7494 144.417C58.6071 144.417 59.2494 144.91 59.2535 145.743C59.2494 146.588 58.603 147.069 57.7494 147.069C56.9124 147.069 56.2743 146.588 56.2743 145.743C56.2743 144.91 56.9082 144.417 57.7494 144.417ZM54.5173 150.923C56.3861 150.923 58.9179 150.902 61.2798 150.442L61.1679 149.365C58.8847 149.684 56.2494 149.709 54.3475 149.709L54.5173 150.923ZM72.0188 147.575V150.181H73.5105V142.424H72.0188V144.09H70.034V143.278H64.9663V148.474H70.034V147.575H72.0188ZM66.4498 147.309V144.463H68.5672V147.309H66.4498ZM72.0188 146.39H70.034V145.296H72.0188V146.39ZM67.9208 149.452H66.4083V152.895H73.7384V151.689H67.9208V149.452ZM82.2399 144.802H80.5493V146.021H82.2399V148.246H83.7275V142.407H82.2399V144.802ZM78.0217 146.108C78.4899 147.061 79.3021 147.831 80.483 148.221L81.2206 147.069C79.6046 146.535 78.838 145.304 78.7717 144.11H80.8932V142.896H75.1087V144.11H77.2427C77.1722 145.412 76.3642 146.7 74.6819 147.26L75.4485 148.432C76.704 148.022 77.5535 147.169 78.0217 146.108ZM78.0963 149.671V148.664H76.617V152.961H83.7275V148.664H82.2399V149.671H78.0963ZM78.0963 151.764V150.823H82.2399V151.764H78.0963ZM93.1871 146.244H96.241V145.055H90.2783V142.569H88.7907V146.244H91.6871V147.384H87.5808V148.577H97.3266V147.384H93.1871V146.244ZM94.6291 150.599V153.081H96.125V149.398H88.6664V150.599H94.6291ZM102.658 142.61C100.3 142.61 98.7715 143.398 98.7756 144.703C98.7715 145.992 100.3 146.771 102.658 146.767C105.033 146.771 106.533 145.992 106.537 144.703C106.533 143.398 105.033 142.61 102.658 142.61ZM102.658 143.775C104.133 143.771 104.995 144.086 104.995 144.703C104.995 145.296 104.133 145.606 102.658 145.606C101.171 145.606 100.321 145.296 100.329 144.703C100.321 144.086 101.171 143.771 102.658 143.775ZM97.8019 147.384V148.577H107.531V147.384H97.8019ZM98.9289 149.323V152.961H106.363V149.323H98.9289ZM104.904 150.508V151.764H100.4V150.508H104.904Z" fill="#177DFF"/>
<path d="M195.379 99.2445H198.433V98.0552H192.47V95.5691H190.983V99.2445H193.879V100.384H189.773V101.577H199.519V100.384H195.379V99.2445ZM196.821 103.599V106.081H198.317V102.398H190.859V103.599H196.821ZM204.85 95.6105C202.493 95.6105 200.964 96.3978 200.968 97.703C200.964 98.9917 202.493 99.7707 204.85 99.7666C207.225 99.7707 208.725 98.9917 208.729 97.703C208.725 96.3978 207.225 95.6105 204.85 95.6105ZM204.85 96.7749C206.326 96.7707 207.187 97.0856 207.187 97.703C207.187 98.2956 206.326 98.6064 204.85 98.6064C203.363 98.6064 202.513 98.2956 202.522 97.703C202.513 97.0856 203.363 96.7707 204.85 96.7749ZM199.994 100.384V101.577H209.723V100.384H199.994ZM201.121 102.323V105.961H208.555V102.323H201.121ZM207.096 103.508V104.764H202.592V103.508H207.096ZM215.813 100.156H218.693V95.797H217.214V96.8619H212.929V95.797H211.458V100.156H214.313V101.059H210.215V102.261H219.944V101.059H215.813V100.156ZM217.214 98.0097V98.971H212.929V98.0097H217.214ZM211.388 102.866V105.895H218.834V104.689H212.888V102.866H211.388ZM228.877 99.6961V95.4075H227.369V106.081H228.877V100.948H230.331V99.6961H228.877ZM226.138 101.424C226.424 99.6506 226.424 98.337 226.428 97.3343V96.4765H220.9V97.6699H224.94C224.936 98.6146 224.911 99.7583 224.667 101.308L226.138 101.424ZM223.772 99.5345H222.301V102.684C221.605 102.7 220.942 102.704 220.341 102.709L220.482 103.902C222.351 103.91 224.766 103.873 226.954 103.5L226.867 102.394C225.885 102.518 224.82 102.593 223.772 102.638V99.5345ZM240.686 95.4075V106.106H242.198V95.4075H240.686ZM233.803 96.2652V103.608H239.07V96.2652H237.599V98.855H235.299V96.2652H233.803ZM235.299 100.019H237.599V102.394H235.299V100.019ZM251.943 102.294C252.332 100.144 252.332 98.6809 252.337 97.3798V96.3356H244.455V97.5249H250.837C250.837 98.7597 250.824 100.21 250.472 102.157L251.943 102.294ZM249.701 100.202H248.23V103.558H247.053V100.202H245.562V103.558H243.494V104.772H253.223V103.558H249.701V100.202Z" fill="#177DFF"/>
<path d="M352.955 144.72V142.407H351.455V148.122H352.955V145.946H354.389V144.72H352.955ZM350.581 146.331C349.392 146.593 348.331 146.655 346.396 146.663V144.247H349.665V143.054H344.908V147.873H345.799C348.165 147.869 349.396 147.815 350.739 147.533L350.581 146.331ZM347.44 149.626V148.631H345.948V152.949H352.955V148.631H351.455V149.626H347.44ZM347.44 151.756V150.798H351.455V151.756H347.44ZM363.176 142.416H361.676V150.185H363.176V146.709H364.61V145.478H363.176V142.416ZM360.624 145.809C360.616 144.227 359.344 143.099 357.711 143.099C356.074 143.099 354.781 144.227 354.79 145.809C354.781 147.376 356.074 148.519 357.711 148.519C359.344 148.519 360.616 147.376 360.624 145.809ZM356.252 145.809C356.244 144.923 356.899 144.401 357.711 144.401C358.531 144.401 359.161 144.923 359.165 145.809C359.161 146.68 358.531 147.214 357.711 147.214C356.899 147.214 356.244 146.68 356.252 145.809ZM356.257 149.365V152.895H363.558V151.689H357.748V149.365H356.257ZM376.013 142.407H374.513V147.844H376.013V145.698H377.447V144.488H376.013V142.407ZM371.538 142.892V144.156H369.35V142.892H367.867V147.546H373.03V142.892H371.538ZM369.35 146.373V145.279H371.538V146.373H369.35ZM376.013 151.138V148.238H368.936V149.394H374.521V150.065H368.952V153.007H376.32V151.83H370.428V151.138H376.013ZM383.524 146.39H385.269V150.21H386.761V142.424H385.269V145.184H383.524V146.39ZM381.055 146.68C381.519 147.641 382.331 148.42 383.512 148.805L384.249 147.62C382.555 147.069 381.796 145.747 381.796 144.508V144.338H383.922V143.141H378.138V144.338H380.276V144.5C380.272 145.863 379.472 147.256 377.711 147.811L378.477 149.021C379.733 148.602 380.582 147.744 381.055 146.68ZM381.175 149.53H379.683V152.895H387.013V151.689H381.175V149.53Z" fill="white"/>
<path d="M75 121.61C78.4518 121.61 81.25 118.813 81.25 115.362C81.25 111.912 78.4518 109.115 75 109.115C71.5482 109.115 68.75 111.912 68.75 115.362C68.75 118.813 71.5482 121.61 75 121.61Z" stroke="#177DFF" stroke-width="3" stroke-linecap="round" stroke-linejoin="round"/>
<path d="M65.0574 125.304C63.7501 124 62.713 122.45 62.0054 120.745C61.2978 119.039 60.9336 117.211 60.9336 115.365C60.9336 113.519 61.2978 111.69 62.0054 109.985C62.713 108.279 63.7501 106.73 65.0574 105.426" stroke="#177DFF" stroke-width="3" stroke-linecap="round" stroke-linejoin="round"/>
<path d="M84.9434 105.426C86.2506 106.73 87.2877 108.279 87.9953 109.985C88.7029 111.69 89.0671 113.519 89.0671 115.365C89.0671 117.211 88.7029 119.039 87.9953 120.745C87.2877 122.45 86.2506 124 84.9434 125.304" stroke="#177DFF" stroke-width="3" stroke-linecap="round" stroke-linejoin="round"/>
<path d="M59.532 130.822C57.4985 128.793 55.8852 126.383 54.7845 123.73C53.6838 121.077 53.1172 118.233 53.1172 115.361C53.1172 112.489 53.6838 109.645 54.7845 106.992C55.8852 104.339 57.4985 101.93 59.532 99.9004" stroke="#177DFF" stroke-width="3" stroke-linecap="round" stroke-linejoin="round"/>
<path d="M90.4668 99.9004C92.5003 101.93 94.1136 104.339 95.2143 106.992C96.315 109.645 96.8816 112.489 96.8816 115.361C96.8816 118.233 96.315 121.077 95.2143 123.73C94.1136 126.383 92.5003 128.793 90.4668 130.822" stroke="#177DFF" stroke-width="3" stroke-linecap="round" stroke-linejoin="round"/>
<path d="M233.281 79.5673C236.302 79.5673 238.75 77.12 238.75 74.101C238.75 71.0821 236.302 68.6348 233.281 68.6348C230.261 68.6348 227.812 71.0821 227.812 74.101C227.812 77.12 230.261 79.5673 233.281 79.5673Z" stroke="#177DFF" stroke-width="3" stroke-linecap="round" stroke-linejoin="round"/>
<path d="M233.282 68.6346L233.281 60.8024C233.281 58.3173 232.294 55.934 230.536 54.1767L223.125 46.7695" stroke="#177DFF" stroke-width="3" stroke-linecap="round" stroke-linejoin="round"/>
<path d="M223.125 54.5785V46.7695H230.938" stroke="#177DFF" stroke-width="3" stroke-linecap="round" stroke-linejoin="round"/>
<path d="M206.719 56.1396C209.739 56.1396 212.188 53.6922 212.188 50.6733C212.188 47.6544 209.739 45.207 206.719 45.207C203.698 45.207 201.25 47.6544 201.25 50.6733C201.25 53.6922 203.698 56.1396 206.719 56.1396Z" stroke="#177DFF" stroke-width="3" stroke-linecap="round" stroke-linejoin="round"/>
<path d="M206.719 56.1406L206.719 63.9728C206.719 66.4579 207.707 68.8413 209.465 70.5985L216.875 78.0057" stroke="#177DFF" stroke-width="3" stroke-linecap="round" stroke-linejoin="round"/>
<path d="M216.875 70.1953V78.0043H209.062" stroke="#177DFF" stroke-width="3" stroke-linecap="round" stroke-linejoin="round"/>
<path d="M358.75 128.46H349.375C348.961 128.46 348.563 128.295 348.27 128.002C347.977 127.71 347.812 127.312 347.812 126.898V118.174C347.812 117.969 347.853 117.766 347.931 117.577C348.01 117.387 348.125 117.215 348.27 117.07L371.708 93.643C372.001 93.3501 372.398 93.1855 372.812 93.1855C373.227 93.1855 373.624 93.3501 373.917 93.643L382.645 102.367C382.938 102.66 383.103 103.057 383.103 103.471C383.103 103.885 382.938 104.283 382.645 104.576L358.75 128.46Z" stroke="white" stroke-width="3" stroke-linecap="round" stroke-linejoin="round"/>
<path d="M366.562 98.7852L377.5 109.718" stroke="white" stroke-width="3" stroke-linecap="round" stroke-linejoin="round"/>
<path d="M382.188 128.462H358.75L347.912 117.629" stroke="white" stroke-width="3" stroke-linecap="round" stroke-linejoin="round"/>
<defs>
<filter id="filter0_d_1162_4766" x="0" y="50" width="158" height="158" filterUnits="userSpaceOnUse" color-interpolation-filters="sRGB">
<feFlood flood-opacity="0" result="BackgroundImageFix"/>
<feColorMatrix in="SourceAlpha" type="matrix" values="0 0 0 0 0 0 0 0 0 0 0 0 0 0 0 0 0 0 127 0" result="hardAlpha"/>
<feOffset dx="4" dy="8"/>
<feGaussianBlur stdDeviation="9.5"/>
<feComposite in2="hardAlpha" operator="out"/>
<feColorMatrix type="matrix" values="0 0 0 0 0.7942 0 0 0 0 0.82626 0 0 0 0 0.874349 0 0 0 1 0"/>
<feBlend mode="normal" in2="BackgroundImageFix" result="effect1_dropShadow_1162_4766"/>
<feBlend mode="normal" in="SourceGraphic" in2="effect1_dropShadow_1162_4766" result="shape"/>
</filter>
<filter id="filter1_d_1162_4766" x="145" y="0" width="158" height="158" filterUnits="userSpaceOnUse" color-interpolation-filters="sRGB">
<feFlood flood-opacity="0" result="BackgroundImageFix"/>
<feColorMatrix in="SourceAlpha" type="matrix" values="0 0 0 0 0 0 0 0 0 0 0 0 0 0 0 0 0 0 127 0" result="hardAlpha"/>
<feOffset dx="4" dy="8"/>
<feGaussianBlur stdDeviation="9.5"/>
<feComposite in2="hardAlpha" operator="out"/>
<feColorMatrix type="matrix" values="0 0 0 0 0.7942 0 0 0 0 0.82626 0 0 0 0 0.874349 0 0 0 1 0"/>
<feBlend mode="normal" in2="BackgroundImageFix" result="effect1_dropShadow_1162_4766"/>
<feBlend mode="normal" in="SourceGraphic" in2="effect1_dropShadow_1162_4766" result="shape"/>
</filter>
<filter id="filter2_d_1162_4766" x="290" y="50" width="158" height="158" filterUnits="userSpaceOnUse" color-interpolation-filters="sRGB">
<feFlood flood-opacity="0" result="BackgroundImageFix"/>
<feColorMatrix in="SourceAlpha" type="matrix" values="0 0 0 0 0 0 0 0 0 0 0 0 0 0 0 0 0 0 127 0" result="hardAlpha"/>
<feOffset dx="4" dy="8"/>
<feGaussianBlur stdDeviation="9.5"/>
<feComposite in2="hardAlpha" operator="out"/>
<feColorMatrix type="matrix" values="0 0 0 0 0.7942 0 0 0 0 0.82626 0 0 0 0 0.874349 0 0 0 1 0"/>
<feBlend mode="normal" in2="BackgroundImageFix" result="effect1_dropShadow_1162_4766"/>
<feBlend mode="normal" in="SourceGraphic" in2="effect1_dropShadow_1162_4766" result="shape"/>
</filter>
<linearGradient id="paint0_linear_1162_4766" x1="164" y1="84" x2="162" y2="84.5" gradientUnits="userSpaceOnUse">
<stop stop-color="#C7DAF2"/>
<stop offset="1" stop-color="#E7ECF3"/>
</linearGradient>
</defs>
</svg>
