<svg width="423" height="245" viewBox="0 0 423 245" fill="none" xmlns="http://www.w3.org/2000/svg">
<path d="M0 32C0 20.9543 8.9543 12 20 12H203C214.046 12 223 20.9543 223 32V215C223 226.046 214.046 235 203 235H20C8.9543 235 0 226.046 0 215V32Z" fill="url(#paint0_linear_1162_4697)"/>
<path d="M198 0.5H403C413.77 0.5 422.5 9.23045 422.5 20V225C422.5 235.77 413.77 244.5 403 244.5H198C187.23 244.5 178.5 235.77 178.5 225V20C178.5 9.23045 187.23 0.5 198 0.5Z" fill="#E8F2FF" stroke="white"/>
<path d="M268.781 181.729H266.062V183.16H268.781V186.227H270.516V178.282H268.781V181.729ZM265.996 179.127H259.543V180.525H264.134C263.825 182.586 261.946 184.249 258.786 185.11L259.482 186.47C263.593 185.315 265.991 182.768 265.996 179.127ZM270.516 192.199V186.801H261.223V192.199H270.516ZM268.792 188.171V190.829H262.924V188.171H268.792ZM273.525 184.21C276.094 183.95 277.972 182.928 278.735 181.503C279.503 182.934 281.403 183.95 283.967 184.21L284.58 182.851C281.895 182.591 280.21 181.519 279.95 180.354H284.028V178.945H273.492V180.354H277.536C277.271 181.536 275.558 182.591 272.934 182.851L273.525 184.21ZM272.315 186.254H285.182V184.845H272.315V186.254ZM278.729 187.188C275.663 187.188 273.812 188.138 273.812 189.785C273.812 191.442 275.663 192.376 278.729 192.37C281.785 192.376 283.619 191.442 283.624 189.785C283.619 188.138 281.785 187.188 278.729 187.188ZM278.729 191.006C276.68 191.011 275.569 190.602 275.58 189.785C275.569 188.961 276.68 188.547 278.729 188.541C280.757 188.547 281.878 188.961 281.89 189.785C281.878 190.602 280.757 191.011 278.729 191.006ZM295.965 178.271V188.873H297.722V178.271H295.965ZM294.987 185.448C293.888 185.564 292.711 185.646 291.529 185.696V184.094H294.164V182.702H288.976V180.552H294.048V179.144H287.23V184.094H289.794V185.762C288.468 185.796 287.17 185.807 286.004 185.812L286.236 187.193C288.871 187.193 292.114 187.116 295.114 186.702L294.987 185.448ZM290.009 188.099H288.258V192.116H298.136V190.707H290.009V188.099ZM304.787 178.912V184.022H314.4V178.912H304.787ZM306.483 182.657V180.271H312.687V182.657H306.483ZM303.151 186.724H308.892V189.304H310.61V186.724H316.063V185.326H303.151V186.724ZM304.715 188.022V192.116H314.638V190.707H306.45V188.022H304.715ZM327.299 192.381H328.945V178.271H327.299V192.381ZM322.409 183.193V184.597H324.443V191.702H326.072V178.536H324.443V183.193H322.409ZM321.155 181.188H323.437V179.785H317.028V181.188H319.481V182.127C319.481 184.586 318.586 187.133 316.548 188.381L317.608 189.663C318.94 188.84 319.84 187.354 320.338 185.613C320.824 187.221 321.697 188.564 323.006 189.337L324.028 188.061C322.006 186.901 321.15 184.508 321.155 182.127V181.188ZM337.712 187.011H342.131V185.591H333.689V183.768H341.806V179.232H331.933V180.635H340.087V182.392H331.955V187.011H335.988V189.315H330.424V190.751H343.336V189.315H337.712V187.011ZM265.969 199.171V197.453H264.245V199.171H259.267V200.569H270.941V199.171H265.969ZM268.322 206.077C269.311 205.619 269.864 204.895 269.864 203.956C269.864 202.26 268.035 201.26 265.101 201.265C262.162 201.26 260.333 202.26 260.344 203.956C260.339 204.895 260.891 205.619 261.88 206.077V208.497H258.687V209.901H271.598V208.497H268.322V206.077ZM265.101 202.608C266.991 202.608 268.079 203.077 268.079 203.956C268.079 204.829 266.991 205.298 265.101 205.298C263.19 205.298 262.112 204.829 262.123 203.956C262.112 203.077 263.19 202.608 265.101 202.608ZM263.626 206.558C264.079 206.619 264.571 206.652 265.101 206.652C265.643 206.652 266.145 206.619 266.609 206.552V208.497H263.626V206.558ZM278.74 202.265C281.956 202.254 283.823 201.403 283.823 199.834C283.823 198.271 281.956 197.414 278.74 197.409C275.525 197.414 273.646 198.271 273.652 199.834C273.646 201.403 275.525 202.254 278.74 202.265ZM278.74 198.702C280.917 198.707 282.039 199.099 282.039 199.834C282.039 200.608 280.917 200.972 278.74 200.978C276.586 200.972 275.459 200.608 275.47 199.834C275.459 199.099 276.586 198.707 278.74 198.702ZM285.182 202.934H272.315V204.315H275.641V205.431H273.829V206.724H281.867V207.657H273.845V211.265H283.967V209.939H275.547V208.89H283.58V205.431H281.84V204.315H285.182V202.934ZM277.359 205.431V204.315H280.105V205.431H277.359ZM296.037 200.762H293.639V202.188H296.037V205.691H297.772V197.271H296.037V200.762ZM290.275 202.304C290.888 203.635 292.009 204.707 293.584 205.227L294.451 203.878C292.269 203.144 291.131 201.414 291.131 199.691V199.514H294.054V198.122H286.418V199.514H289.363V199.707C289.363 201.541 288.159 203.414 285.91 204.16L286.805 205.53C288.479 204.967 289.65 203.779 290.275 202.304ZM296.037 207.757V211.381H297.772V206.359H288.142V207.757H296.037ZM309.588 197.282V207.486H311.328V197.282H309.588ZM303.632 205.276C305.781 205.282 307.433 203.823 307.433 201.735C307.433 199.68 305.781 198.21 303.632 198.21C301.483 198.21 299.82 199.68 299.825 201.735C299.82 203.823 301.483 205.282 303.632 205.276ZM301.521 201.735C301.516 200.514 302.422 199.724 303.632 199.724C304.809 199.724 305.726 200.514 305.726 201.735C305.726 202.989 304.809 203.762 303.632 203.762C302.422 203.762 301.516 202.989 301.521 201.735ZM303.737 206.448H301.986V211.116H311.726V209.707H303.737V206.448ZM327.299 202.79H325.708V197.536H324.111V210.68H325.708V204.193H327.299V211.381H328.945V197.271H327.299V202.79ZM318.973 200.337H322.509V198.939H317.233V208.088H318.194C320.155 208.077 321.636 208.028 323.349 207.685L323.211 206.26C321.774 206.536 320.514 206.613 318.973 206.624V200.337ZM340.424 197.271V211.414H342.176V197.271H340.424ZM331.165 198.42V208.077H338.043V198.42H336.325V201.95H332.905V198.42H331.165ZM332.905 203.309H336.325V206.652H332.905V203.309Z" fill="#0565DF"/>
<path d="M72.8015 163.495V168.412H81.334V163.495H72.8015ZM74.2905 167.222V164.709H79.8209V167.222H74.2905ZM71.4238 169.857V171.085H76.287V175.199H77.7905V171.085H82.7214V169.857H71.4238ZM93.1136 165.946V162.862H91.5859V170.307H93.1136V167.218H94.8394V165.946H93.1136ZM87.0466 167.305C87.588 168.455 88.5645 169.378 89.9471 169.838L90.7206 168.663C88.7724 168.025 87.7959 166.526 87.7959 165.008V164.854H90.358V163.631H83.6481V164.854H86.2683V164.999C86.2586 166.623 85.2144 168.228 83.2227 168.89L84.03 170.065C85.4754 169.572 86.5003 168.571 87.0466 167.305ZM91.5859 172.095V175.209H93.1136V170.877H84.876V172.095H91.5859ZM102.007 167.184H104.12V170.205H105.638V162.862H104.12V165.941H102.007V167.184ZM99.0824 167.271C99.6238 168.436 100.6 169.378 101.973 169.843L102.732 168.639C100.823 168.001 99.8268 166.483 99.8268 164.97V164.892H102.384V163.664H95.7032V164.892H98.2799V164.984C98.2799 166.623 97.2357 168.286 95.2488 168.963L96.0416 170.166C97.5112 169.649 98.5409 168.586 99.0824 167.271ZM101.456 170.51C98.8455 170.515 97.2453 171.38 97.2502 172.864C97.2453 174.348 98.8455 175.213 101.456 175.218C104.071 175.213 105.671 174.348 105.671 172.864C105.671 171.38 104.071 170.515 101.456 170.51ZM101.456 174.039C99.735 174.048 98.7536 173.633 98.7633 172.864C98.7536 172.09 99.735 171.68 101.456 171.68C103.182 171.68 104.158 172.09 104.163 172.864C104.158 173.633 103.182 174.048 101.456 174.039ZM120.11 162.862H118.582V169.079H120.11V166.773H121.836V165.521H120.11V162.862ZM110.78 163.65V168.755H116.634V163.65H110.78ZM112.279 167.556V164.849H115.14V167.556H112.279ZM117.35 169.301V170.263H114.962V171.365H121.188V170.263H118.834V169.301H117.35ZM113.018 170.133H111.534V174.88H112.192C113.245 174.88 114.299 174.831 115.397 174.45L115.169 173.26C114.464 173.492 113.729 173.594 113.018 173.637V170.133ZM118.07 171.728C116.663 171.728 115.706 172.385 115.716 173.463C115.706 174.522 116.663 175.194 118.07 175.189C119.457 175.194 120.429 174.522 120.439 173.463C120.429 172.385 119.457 171.728 118.07 171.728ZM118.07 174.164C117.485 174.164 117.06 173.913 117.064 173.463C117.06 173.019 117.485 172.772 118.07 172.762C118.65 172.772 119.071 173.019 119.071 173.463C119.071 173.913 118.65 174.164 118.07 174.164ZM127.906 168.286C130.599 168.281 132.354 167.324 132.354 165.753C132.354 164.191 130.599 163.249 127.906 163.258C125.204 163.249 123.449 164.191 123.454 165.753C123.449 167.324 125.204 168.281 127.906 168.286ZM127.906 164.467C129.705 164.472 130.792 164.941 130.792 165.753C130.792 166.594 129.705 167.048 127.906 167.048C126.108 167.048 125.02 166.594 125.03 165.753C125.02 164.941 126.108 164.472 127.906 164.467ZM122.284 170.456H133.543V169.243H122.284V170.456ZM123.671 171.37V174.977H132.272V173.744H125.199V171.37H123.671ZM78.817 180.423V184.894H87.2286V180.423H78.817ZM80.3011 183.7V181.612H85.73V183.7H80.3011ZM77.3861 187.258H82.4088V189.516H83.9123V187.258H88.6837V186.035H77.3861V187.258ZM78.7542 188.394V191.977H87.4365V190.744H80.2721V188.394H78.7542ZM98.5151 192.209H99.9557V179.862H98.5151V192.209ZM94.2368 184.169V185.397H96.0158V191.614H97.4419V180.094H96.0158V184.169H94.2368ZM93.1394 182.414H95.1359V181.186H89.5282V182.414H91.6746V183.236C91.6746 185.387 90.8915 187.616 89.1076 188.709L90.0358 189.83C91.2009 189.11 91.9888 187.809 92.4239 186.287C92.8493 187.693 93.6132 188.868 94.7589 189.545L95.6532 188.428C93.8839 187.413 93.1346 185.32 93.1394 183.236V182.414ZM105.475 183.135V184.295H114.554V183.135H112.92V181.307H114.621V180.171H105.407V181.307H107.109V183.135H105.475ZM108.622 183.135V181.307H111.397V183.135H108.622ZM115.656 185.059H104.397V186.267H109.246V187.205H105.722V188.307H112.755V189.086H105.736V192.107H114.592V190.976H107.225V190.135H114.254V187.205H110.773V186.267H115.656V185.059ZM125.105 192.209H126.638V179.862H125.105V192.209ZM117.032 181.172V182.376H121.407C121.137 185.189 119.638 187.273 116.404 188.81L117.201 190.028C121.523 187.974 122.949 184.851 122.954 181.172H117.032Z" fill="#D1E5FF"/>
<path d="M90.2812 100.574H109.098" stroke="#D1E5FF" stroke-width="1.5" stroke-linecap="round" stroke-linejoin="round"/>
<path d="M90.2812 109.982H109.097" stroke="#D1E5FF" stroke-width="1.5" stroke-linecap="round" stroke-linejoin="round"/>
<path d="M90.2812 119.391H109.097" stroke="#D1E5FF" stroke-width="1.5" stroke-linecap="round" stroke-linejoin="round"/>
<path d="M90.2812 128.799H109.097" stroke="#D1E5FF" stroke-width="1.5" stroke-linecap="round" stroke-linejoin="round"/>
<path d="M83.8157 102.046C84.6276 102.046 85.2857 101.387 85.2857 100.575C85.2857 99.7636 84.6276 99.1055 83.8157 99.1055C83.0039 99.1055 82.3457 99.7636 82.3457 100.575C82.3457 101.387 83.0039 102.046 83.8157 102.046Z" fill="#D1E5FF"/>
<path d="M83.8157 120.86C84.6276 120.86 85.2857 120.202 85.2857 119.39C85.2857 118.578 84.6276 117.92 83.8157 117.92C83.0039 117.92 82.3457 118.578 82.3457 119.39C82.3457 120.202 83.0039 120.86 83.8157 120.86Z" fill="#D1E5FF"/>
<path d="M83.8157 130.268C84.6276 130.268 85.2857 129.61 85.2857 128.798C85.2857 127.986 84.6276 127.328 83.8157 127.328C83.0039 127.328 82.3457 127.986 82.3457 128.798C82.3457 129.61 83.0039 130.268 83.8157 130.268Z" fill="#D1E5FF"/>
<path d="M83.8157 111.452C84.6276 111.452 85.2857 110.794 85.2857 109.982C85.2857 109.17 84.6276 108.512 83.8157 108.512C83.0039 108.512 82.3457 109.17 82.3457 109.982C82.3457 110.794 83.0039 111.452 83.8157 111.452Z" fill="#D1E5FF"/>
<path d="M130.562 129.682V81.4648H82.3457" stroke="#D1E5FF" stroke-width="3" stroke-linecap="round" stroke-linejoin="round"/>
<path d="M138.795 122.625V74.4082H90.5781" stroke="#D1E5FF" stroke-width="3" stroke-linecap="round" stroke-linejoin="round"/>
<path d="M121.154 89.6973H72.9375V137.914H121.154V89.6973Z" stroke="#D1E5FF" stroke-width="3" stroke-linecap="round" stroke-linejoin="round"/>
<path d="M356.344 43.6406V55.2591L344.725 65.7751V55.2591L356.344 43.6406Z" fill="#177DFF"/>
<path d="M299.496 106.712L344.725 65.7751M344.725 65.7751L356.344 55.2591V43.6406L344.725 55.2591V65.7751Z" stroke="#177DFF" stroke-width="5" stroke-linecap="round" stroke-linejoin="round"/>
<path d="M338.311 67.8226C328.673 58.2032 315.775 52.5518 302.17 51.9864C288.564 51.421 275.242 55.9828 264.838 64.7693C254.435 73.5559 247.709 85.9271 245.99 99.4355C244.271 112.944 247.684 126.605 255.556 137.717C263.427 148.829 275.182 156.582 288.496 159.443C301.809 162.303 315.711 160.062 327.452 153.163C339.192 146.264 347.915 135.21 351.896 122.187C355.877 109.164 354.824 95.1222 348.948 82.8383" stroke="#177DFF" stroke-width="5" stroke-linecap="round" stroke-linejoin="round"/>
<path d="M318.982 87.2255C314.523 82.7665 308.642 80.011 302.362 79.4378C296.082 78.8647 289.8 80.5102 284.607 84.0882C279.415 87.6663 275.64 92.9508 273.939 99.0232C272.238 105.096 272.719 111.572 275.298 117.327C277.876 123.082 282.39 127.751 288.054 130.523C293.718 133.295 300.174 133.995 306.301 132.501C312.428 131.007 317.837 127.414 321.589 122.345C325.341 117.277 327.198 111.054 326.838 104.758" stroke="#177DFF" stroke-width="5" stroke-linecap="round" stroke-linejoin="round"/>
<path d="M329.669 77.3696C322.809 70.5096 313.761 66.2704 304.1 65.3886C294.438 64.5068 284.773 67.0383 276.784 72.5431C268.796 78.0478 262.988 86.1778 260.372 95.52C257.755 104.862 258.495 114.826 262.462 123.679C266.429 132.533 273.373 139.716 282.087 143.981C290.801 148.246 300.734 149.323 310.159 147.024C319.585 144.726 327.907 139.197 333.679 131.4C339.452 123.602 342.309 114.028 341.755 104.342" stroke="#177DFF" stroke-width="5" stroke-linecap="round" stroke-linejoin="round"/>
<circle cx="299.497" cy="106.712" r="4.97935" fill="#177DFF"/>
<defs>
<linearGradient id="paint0_linear_1162_4697" x1="-18.1188" y1="123.5" x2="193.657" y2="124.025" gradientUnits="userSpaceOnUse">
<stop stop-color="#183E6F"/>
<stop offset="1" stop-color="#177DFF"/>
</linearGradient>
</defs>
</svg>
