<svg width="111" height="15" viewBox="0 0 111 15" fill="none" xmlns="http://www.w3.org/2000/svg">
<path d="M84.3342 4.53461H86.3188V14.548H84.3342V4.53461Z" fill="white"/>
<path d="M86.3188 2.55828H84.3342L86.3188 4.53461V2.55828Z" fill="white"/>
<path d="M66.4723 4.53461H64.4877V14.548H66.4723V9.8869L71.8472 4.53461H69.0404L66.4723 7.09195V4.53461Z" fill="white"/>
<path d="M37.0995 0.450195H35.1149V14.548H37.0995V10.282L37.312 10.0704L37.3121 10.0705L37.678 9.70611L40.7377 14.5502H43.0238L39.0814 8.30863L42.8713 4.53461H40.0646L39.781 4.81701L39.7809 4.8169L37.0995 7.48701V0.450195Z" fill="white"/>
<path fill-rule="evenodd" clip-rule="evenodd" d="M15.533 4.53461V12.5717L17.5177 14.548H23.4716V6.51094L21.487 4.53461H15.533ZM21.487 6.51094H17.5177V12.5717H21.487V6.51094Z" fill="white"/>
<path fill-rule="evenodd" clip-rule="evenodd" d="M89.0973 4.53461H95.0513L97.0359 6.51094V10.2001H91.082V12.5717H97.0359V14.548H91.082L89.0973 12.5717V4.53461ZM91.082 8.22376H95.0513V6.51094H91.082V8.22376Z" fill="white"/>
<path d="M49.9336 2.55828H47.9489L49.9336 4.53461H44.9058V6.51094H47.9489V14.548H49.9336V6.51094H52.8444V4.53461H49.9336V2.55828Z" fill="white"/>
<path d="M33.2625 6.51094L31.2779 4.53461H25.324V12.5717L27.3086 14.548H33.2625V12.5717H27.3086V6.51094H33.2625Z" fill="white"/>
<path d="M97.9621 4.53461H99.8746L101.318 11.9465L103.248 4.53461H105.167L106.61 11.9465L108.541 4.53461H110.399L107.585 14.548H105.636L104.103 8.1042L102.292 14.548H100.344L97.9621 4.53461Z" fill="white"/>
<path fill-rule="evenodd" clip-rule="evenodd" d="M54.6968 4.53461H60.6507L62.6353 6.51094V10.2001H56.6814V12.5717H62.6353V14.548H56.6814L54.6968 12.5717V4.53461ZM56.6814 8.22376H60.6507V6.51094H56.6814V8.22376Z" fill="white"/>
<path d="M74.6755 4.53461H72.8232L75.734 14.548H78.1156L81.5557 4.53461H79.7695L76.9248 12.8687L74.6755 4.53461Z" fill="white"/>
<path fill-rule="evenodd" clip-rule="evenodd" d="M0.449219 0.58201L7.06471 7.46669L13.6802 0.58201V14.5481H8.522V10.3517L8.52011 9.81171C8.52136 9.78989 8.522 9.76793 8.522 9.74583C8.522 9.18956 8.03558 8.62916 7.13274 8.62916C6.22991 8.62916 5.74349 9.18956 5.74349 9.74583C5.74349 9.7697 5.74349 9.79161 5.74349 9.81171V14.5481H0.449219V0.58201ZM5.74538 9.81171H5.74522C5.74528 9.81083 5.74533 9.81079 5.74538 9.81171ZM5.74349 14.5481H8.522V14.5484H5.74349V14.5481Z" fill="white"/>
</svg>
